<svg width="300" height="250" viewBox="0 0 300 250" fill="none" xmlns="http://www.w3.org/2000/svg">
<path d="M174.263 87.5674C175.672 87.8969 177.101 88.1453 178.541 88.2872C179.499 88.3835 180.452 88.6269 181.431 88.5407C182.379 88.4596 183.281 88.7333 184.193 88.9462C185.385 89.2251 186.591 89.4329 187.782 89.6914C189.511 90.0666 191.24 90.4214 192.968 90.7965C195.163 91.2731 197.353 91.8053 199.594 92.0791C200.288 92.1653 201.008 92.2109 201.672 92.4998C202.235 92.7432 202.823 92.6063 203.401 92.6215C203.852 93.0321 204.537 93.1842 205.272 93.0321C205.652 93.098 206.032 93.1791 206.417 93.2349C210.873 93.8939 215.334 94.5529 219.76 95.3995C222.964 96.0129 226.167 96.606 229.366 97.2447C232.027 97.777 234.684 98.3397 237.325 98.9531C240.159 99.6121 242.987 100.302 245.755 101.219C247.205 101.701 248.609 102.258 249.846 103.206C252.913 104.859 252.32 125.907 252.508 126.008C252.254 126.206 248.361 126.5 247.661 126.576C247.408 126.601 247.139 126.53 246.891 126.576C245.451 126.824 243.996 126.926 242.541 127.032C238.536 127.321 234.532 127.625 230.527 127.934C228.139 128.117 225.752 128.33 223.359 128.502C220.966 128.675 218.568 128.801 216.176 128.979C213.205 129.202 210.234 129.465 207.264 129.693C203.974 129.947 200.679 130.18 197.384 130.429C193.632 130.712 189.881 130.981 186.13 131.295C183.808 131.488 181.481 131.61 179.165 131.848C176.858 132.086 174.531 132.132 172.22 132.345C169.35 132.613 166.471 132.786 163.602 132.994C161.214 133.166 158.821 133.348 156.429 133.49C154.239 133.617 152.044 133.805 149.854 134.002C147.694 134.2 145.519 134.276 143.355 134.423C142.838 134.459 142.245 134.428 141.839 134.677C141.064 135.143 140.212 135.295 139.375 135.543C139.249 134.383 139.269 133.212 139.33 132.051C139.563 127.62 139.578 123.184 139.462 118.749C139.451 118.298 139.406 117.841 139.355 117.395C139.335 117.233 139.218 117.091 139.026 117.101C138.838 117.111 138.747 117.243 138.737 117.421C138.721 117.745 138.706 118.07 138.701 118.394C138.656 121.922 138.62 125.45 138.372 128.979C138.215 131.24 138.159 133.506 138.052 135.772C137.905 135.706 137.758 135.584 137.606 135.584C136.41 135.569 135.208 135.478 134.012 135.68C133.287 135.802 132.567 136.045 131.807 135.853C130.575 135.538 129.369 135.128 128.284 134.499C124.973 132.578 121.445 131.093 118.069 129.308C116.153 128.294 114.181 127.377 112.3 126.287C110.536 125.268 108.787 124.214 106.937 123.352C106.349 123.078 105.715 122.956 105.122 122.672C102.694 121.507 100.124 120.685 97.589 119.788C97.4876 119.606 97.513 119.413 97.513 119.215C97.4927 117.431 97.4471 115.641 97.4623 113.857C97.4825 111.976 97.295 110.106 97.3203 108.23C97.3305 107.464 97.1784 106.826 96.6157 106.299C96.2912 105.315 95.5613 104.702 94.6792 104.266C93.4879 103.678 92.2814 103.13 91.0648 102.593C90.568 102.37 90.0661 102.177 89.4781 102.213C86.2084 102.41 82.9386 102.578 79.674 102.75C79.7247 102.471 79.6081 102.304 79.3293 102.253C79.2938 101.929 79.2583 101.609 79.2279 101.285C79.1164 100.119 79.1062 98.948 79.1468 97.7821C79.1873 96.6111 79.8413 95.7036 80.5358 94.852C81.2354 93.9902 82.1833 93.3464 83.1566 92.9054C84.1046 92.4745 85.2198 92.4035 86.2591 92.1602C88.1651 91.7141 90.1067 91.6583 92.0584 91.5975C94.3497 91.5316 96.641 91.5265 98.9324 91.5924C100.286 91.6279 101.644 91.6533 103.003 91.6228C106.303 91.5519 109.593 91.2933 112.888 91.1159C114.733 91.0145 116.569 90.8371 118.414 90.7509C119.676 90.6901 120.933 90.6597 122.195 90.5634C123.351 90.4772 124.522 90.538 125.673 90.4113C127.772 90.1832 129.876 90.0919 131.974 89.9753C134.595 89.8283 137.216 89.7371 139.837 89.5596C143.198 89.3315 146.559 89.1693 149.925 88.9969C151.248 88.931 152.576 88.8905 153.889 88.7891C156.018 88.6218 158.152 88.5914 160.276 88.3886C160.92 88.3278 161.564 88.2467 162.208 88.2213C163.465 88.1706 164.727 88.1757 165.989 88.1098C167.51 88.0287 169.031 87.907 170.552 87.7955C171.779 87.7043 173.021 87.8259 174.242 87.5674H174.263ZM141.631 115.423C143.35 115.307 144.871 115.205 146.391 115.099C149.438 114.881 152.48 114.673 155.526 114.44C159.308 114.146 163.09 113.821 166.866 113.512C168.58 113.375 170.293 113.254 172.007 113.112C174.82 112.879 177.629 112.63 180.442 112.397C184.356 112.072 188.269 111.763 192.178 111.439C196.192 111.109 200.202 110.775 204.217 110.445C207.091 110.212 209.966 109.984 212.84 109.746C215.36 109.533 217.884 109.295 220.404 109.087C222.573 108.904 224.743 108.762 226.907 108.58C231.11 108.225 235.307 107.85 239.51 107.495C241.872 107.292 244.229 107.11 246.592 106.912C246.815 106.892 247.058 106.932 247.251 106.785C247.423 106.653 247.636 106.527 247.575 106.243C247.524 105.994 247.382 105.797 247.144 105.771C246.794 105.736 246.429 105.746 246.075 105.776C243.393 106.005 240.711 106.263 238.024 106.476C233.209 106.861 228.388 107.216 223.572 107.606C220.211 107.88 216.85 108.194 213.489 108.478C210.158 108.757 206.823 109.011 203.487 109.295C198.448 109.72 193.414 110.166 188.381 110.592C184.503 110.922 180.625 111.226 176.746 111.55C173.74 111.804 170.734 112.067 167.723 112.321C165.817 112.483 163.906 112.61 161.995 112.782C158.086 113.127 154.178 113.482 150.269 113.837C147.005 114.136 143.735 114.415 140.486 114.825C140.227 114.856 139.969 114.901 139.72 114.967C139.598 114.997 139.492 115.099 139.528 115.256C139.558 115.413 139.715 115.494 139.816 115.449C140.486 115.155 141.16 115.449 141.626 115.428L141.631 115.423ZM84.8244 94.558C84.4594 94.5022 84.2719 94.4617 84.1958 94.6492C84.1097 94.8773 84.282 95.0193 84.4493 95.1055C85.0019 95.3792 85.5544 95.658 86.1222 95.8861C93.3713 98.7909 100.631 101.67 107.941 104.413C112.396 106.086 116.822 107.835 121.263 109.543C126.276 111.474 131.295 113.406 136.308 115.332C136.968 115.586 137.353 115.53 137.49 115.16C137.621 114.805 137.363 114.46 136.724 114.212C133.612 113.005 130.499 111.794 127.381 110.602C124.38 109.457 121.369 108.352 118.368 107.206C113.502 105.34 108.645 103.439 103.774 101.584C98.3494 99.5158 92.9151 97.483 87.4808 95.4451C86.5429 95.0953 85.5747 94.8064 84.8194 94.5529L84.8244 94.558Z" fill="white"/>
<path d="M174.262 87.5671C173.045 87.8256 171.803 87.7039 170.571 87.7952C169.051 87.9067 167.53 88.0284 166.009 88.1095C164.752 88.1754 163.49 88.1703 162.227 88.221C161.583 88.2464 160.94 88.3275 160.296 88.3883C158.172 88.586 156.038 88.6215 153.909 88.7888C152.596 88.8902 151.267 88.9257 149.944 88.9966C146.583 89.169 143.217 89.3312 139.856 89.5593C137.236 89.7367 134.615 89.828 131.994 89.975C129.895 90.0916 127.786 90.1828 125.693 90.411C124.542 90.5377 123.371 90.4769 122.215 90.563C120.958 90.6594 119.696 90.6898 118.433 90.7506C116.588 90.8368 114.748 91.0142 112.908 91.1156C109.613 91.293 106.323 91.5566 103.023 91.6225C101.664 91.653 100.305 91.6276 98.952 91.5921C96.6606 91.5313 94.3693 91.5313 92.078 91.5972C90.1314 91.653 88.1898 91.7087 86.2787 92.1599C85.2395 92.4032 84.1242 92.4691 83.1762 92.9051C82.1979 93.3512 81.255 93.9899 80.5554 94.8517C79.8609 95.7084 79.207 96.6107 79.1664 97.7818C79.1258 98.9528 79.1411 100.119 79.2475 101.285C79.2779 101.609 79.3134 101.928 79.3489 102.253C78.1779 102.329 77.0069 102.4 75.8359 102.476C75.6584 102.253 75.699 101.984 75.6939 101.726C75.6179 98.4154 75.5064 95.1052 75.4962 91.7949C75.4911 90.046 75.6483 88.2971 75.7598 86.5532C75.9068 84.2872 76.0792 82.0263 76.2515 79.7654C76.3022 79.0861 76.4492 78.4119 76.4847 77.7326C76.6824 73.8799 76.8447 70.0221 77.0474 66.1695C77.2451 62.3472 77.2147 58.5199 77.2096 54.6976C77.2096 52.9537 77.0424 51.2099 76.946 49.4711C76.9258 49.0808 76.946 48.6955 77.0373 48.3102C77.2857 47.2609 78.0157 46.8046 79.0447 47.0936C79.3844 47.1899 79.7595 47.2862 79.9978 47.56C80.3374 47.9604 80.7531 47.9655 81.2195 47.9554C83.6832 47.8945 86.1418 47.9148 88.6055 47.8337C91.5153 47.7374 94.4301 47.8033 97.3399 47.8337C99.2409 47.854 101.137 47.8591 103.038 47.8084C104.751 47.7627 106.465 47.854 108.178 47.8692C111.615 47.8996 115.047 47.9402 118.484 47.9452C122.793 47.9554 127.102 47.9098 131.411 47.9554C134.001 47.9807 136.587 48.0213 139.177 48.0162C141.266 48.0162 143.359 47.9757 145.448 48.0466C146.705 48.0872 147.962 48.077 149.209 48.0466C151.009 48.0111 152.808 48.072 154.608 48.072C156.55 48.072 158.496 48.077 160.443 48.1024C163.327 48.1379 166.212 48.1024 169.101 48.1176C169.775 48.1176 170.247 47.707 170.779 47.418C171.088 47.2457 171.352 46.9871 171.661 46.8148C172.427 46.389 172.934 46.5106 173.365 47.2761C174.003 48.4167 174.343 49.6384 174.368 50.9615C174.434 54.363 174.49 57.7645 174.48 61.1711C174.475 63.0772 174.551 64.9832 174.541 66.8842C174.52 69.9258 174.454 72.9674 174.419 76.009C174.394 78.2801 174.394 80.5511 174.363 82.8222C174.343 84.4038 174.292 85.9804 174.252 87.562L174.262 87.5671ZM85.9187 52.4519C86.4206 52.7003 86.8109 52.7662 87.2317 52.7814C88.9198 52.8422 90.6028 52.898 92.2909 52.9537C96.2145 53.0805 100.143 53.0855 104.072 53.1565C109.329 53.2528 114.591 53.263 119.853 53.3491C126.053 53.4505 132.252 53.415 138.447 53.5266C146.533 53.6736 154.618 53.5367 162.704 53.7395C164.716 53.7902 166.729 53.7547 168.736 53.7598C169.431 53.7598 169.841 53.5063 169.852 53.0855C169.862 52.68 169.451 52.4316 168.736 52.4215C165.036 52.3657 161.34 52.2897 157.64 52.2643C150.689 52.2187 143.745 52.244 136.794 52.1173C132.181 52.0311 127.563 52.0565 122.95 52.0463C114.631 52.026 106.313 52.0108 97.9989 52.0108C94.491 52.0108 90.9779 52.0463 87.47 52.0717C86.9934 52.0717 86.4916 52.0159 85.9238 52.4569L85.9187 52.4519ZM80.0941 71.7609C80.0941 71.7609 80.1346 71.7609 80.1549 71.7609C80.1549 68.9677 80.16 66.1695 80.1549 63.3763C80.1448 59.2802 80.1245 55.1842 80.1042 51.0882C80.1042 50.7689 80.1701 50.4292 79.9876 50.1352C79.942 50.0591 79.8508 49.9932 79.7697 49.9679C79.6226 49.9273 79.5314 50.0287 79.4604 50.1453C79.3337 50.3532 79.3641 50.5864 79.354 50.8094C79.2881 51.9754 79.2374 53.1464 79.212 54.3123C79.1106 59.4729 79.0752 64.6335 79.0245 69.794C78.9535 77.3879 78.8927 84.9868 78.8268 92.5806C78.8217 93.3258 79.0447 93.706 79.4706 93.6908C79.8457 93.6756 80.0535 93.336 80.0687 92.6212C80.0941 91.4857 80.0992 90.3451 80.0992 89.2095C80.0992 83.395 80.0992 77.5754 80.0992 71.7609H80.0941ZM172.016 64.816C172.016 64.816 172.047 64.816 172.062 64.816C172.062 60.3955 172.062 55.97 172.062 51.5495C172.062 51.0984 172.021 50.6421 171.96 50.191C171.94 50.0085 171.859 49.7702 171.606 49.8158C171.448 49.8462 171.357 50.0287 171.347 50.196C171.286 50.9716 171.215 51.7523 171.2 52.533C171.099 57.9622 170.992 63.3864 170.926 68.8156C170.876 73.008 170.926 77.1952 170.85 81.3876C170.825 82.8171 170.764 84.2467 170.769 85.6762C170.769 85.8689 170.749 86.0716 170.794 86.2592C170.865 86.5583 171.028 86.8168 171.393 86.7813C171.692 86.7509 171.854 86.5431 171.874 86.2541C171.905 85.8993 171.915 85.5393 171.92 85.1845C171.955 81.9452 172.001 78.7008 172.011 75.4615C172.026 71.9181 172.011 68.3746 172.011 64.8261L172.016 64.816Z" fill="#C14926"/>
<path d="M139.379 135.548C140.216 135.3 141.067 135.153 141.843 134.681C142.253 134.433 142.847 134.464 143.359 134.428C145.523 134.281 147.698 134.2 149.857 134.007C152.047 133.81 154.242 133.622 156.432 133.495C158.825 133.353 161.218 133.171 163.605 132.998C166.48 132.791 169.354 132.618 172.223 132.35C174.535 132.132 176.857 132.086 179.168 131.853C181.49 131.615 183.812 131.493 186.134 131.3C189.885 130.986 193.636 130.717 197.387 130.433C200.677 130.185 203.973 129.952 207.268 129.698C210.238 129.47 213.209 129.207 216.179 128.984C218.572 128.806 220.97 128.679 223.363 128.507C225.75 128.335 228.138 128.122 230.531 127.939C234.535 127.63 238.54 127.331 242.545 127.037C244 126.931 245.455 126.829 246.894 126.581C247.143 126.54 255.771 124.528 256.648 125.237C257.657 126.048 258.062 127.148 258.164 128.37C258.478 132.04 259.01 135.69 259 139.391C258.99 143.117 258.823 146.828 258.615 150.543C258.463 153.286 257.581 155.856 256.764 158.441C256.582 159.024 256.263 159.516 255.517 159.425C255.497 158.872 255.467 158.325 255.457 157.772C255.421 156.145 255.73 154.538 255.816 152.921C255.953 150.351 255.766 147.786 255.583 145.231C255.497 144.039 255.548 142.823 255.239 141.647C255.152 141.332 255.157 140.962 254.767 140.76C254.564 141.196 254.671 141.591 254.727 141.961C254.853 142.803 254.843 143.644 254.879 144.491C254.914 145.398 254.934 146.311 254.995 147.218C255.127 149.296 255.218 151.39 255.005 153.453C254.798 155.461 254.671 157.463 254.651 159.476C253.718 159.405 253.464 159.232 253.363 158.381C252.993 155.192 252.091 152.095 251.883 148.876C251.807 147.72 251.462 146.594 251.3 145.439C251.127 144.176 251.208 142.914 251.122 141.657C251.077 141.003 251.036 140.937 250.402 140.932C250.083 140.932 249.764 141.013 249.444 141.049C247.026 141.307 244.613 141.581 242.195 141.814C239.879 142.037 237.552 142.199 235.235 142.427C232.944 142.65 230.657 142.929 228.366 143.162C224.818 143.522 221.264 143.857 217.715 144.207C215.069 144.47 212.428 144.749 209.782 145.008C207.136 145.271 204.49 145.51 201.843 145.778C199.522 146.011 197.21 146.285 194.888 146.518C192.729 146.736 190.569 146.919 188.41 147.137C186.798 147.299 185.196 147.547 183.579 147.639C181.86 147.74 180.167 148.039 178.448 148.115C177.059 148.176 175.681 148.409 174.297 148.556C172.979 148.698 171.656 148.876 170.338 148.987C167.884 149.19 165.446 149.479 162.992 149.692C160.412 149.915 157.832 150.158 155.256 150.417C150.481 150.898 145.701 151.339 140.91 151.679C140.393 151.714 139.876 151.806 139.369 151.902C138.604 152.049 138.528 151.978 138.502 152.926C138.441 155.476 138.142 158.016 138.228 160.581C138.289 162.411 138.228 164.256 138.097 166.086C137.985 167.668 137.727 169.234 137.488 170.806C137.402 171.378 137.199 171.936 137.017 172.489C136.779 173.203 136.327 173.725 135.567 173.918C135.679 170.248 135.288 166.593 135.192 162.928C135.015 155.968 134.802 152.809 134.355 152.019C134.087 152.348 134.183 152.713 134.173 153.043C134.112 155.608 134.421 158.163 134.406 160.728C134.391 163.196 134.533 165.655 134.639 168.119C134.72 169.994 134.837 171.87 134.685 173.746C133.119 172.985 132.531 171.561 132.515 169.994C132.495 168.2 132.11 166.461 131.937 164.692C131.811 163.399 131.907 162.112 131.811 160.829C131.613 158.178 131.664 155.516 131.648 152.86C131.648 152.698 131.648 152.536 131.633 152.373C131.578 151.694 131.334 151.187 130.66 150.837C128.678 149.813 126.797 148.607 124.82 147.558C123.112 146.65 121.439 145.667 119.791 144.648C118.053 143.573 116.207 142.721 114.367 141.86C112.811 141.13 111.27 140.369 109.673 139.751C106.946 138.696 104.416 137.257 101.897 135.807C100.127 134.788 98.5458 133.48 96.9033 132.274C96.5637 132.025 96.2291 131.767 95.8945 131.513C96.8983 131.239 97.4508 130.601 97.4812 129.541C97.5319 127.676 97.7499 125.815 97.6688 123.94C97.608 122.566 97.6181 121.187 97.5978 119.808C100.132 120.71 102.698 121.527 105.131 122.693C105.724 122.976 106.358 123.098 106.946 123.372C108.796 124.234 110.545 125.283 112.309 126.307C114.19 127.397 116.162 128.309 118.078 129.328C121.454 131.113 124.982 132.598 128.293 134.519C129.377 135.148 130.584 135.564 131.816 135.873C132.576 136.065 133.296 135.822 134.021 135.7C135.217 135.498 136.414 135.589 137.615 135.604C137.762 135.604 137.909 135.726 138.061 135.792C138.081 135.883 138.097 135.979 138.117 136.07C138.203 136.42 138.396 136.633 138.791 136.608C139.217 136.577 139.288 136.283 139.318 135.939C139.328 135.812 139.354 135.685 139.374 135.558L139.379 135.548Z" fill="#C14A26"/>
<path d="M79.6943 102.754C82.964 102.577 86.2337 102.415 89.4983 102.217C90.0864 102.182 90.5832 102.374 91.085 102.597C92.2966 103.135 93.5082 103.682 94.6995 104.27C95.5815 104.706 96.3115 105.32 96.6359 106.303C95.9465 106.191 95.2926 106.491 94.6082 106.475C92.0735 106.425 89.5541 106.744 87.0245 106.714C86.8927 106.714 86.7609 106.714 86.6342 106.734C85.2604 107.003 83.8562 106.998 82.4773 107.033C80.4344 107.084 78.4067 107.368 76.3586 107.292C76.2927 107.292 76.2268 107.292 76.166 107.302C74.3765 107.702 72.5516 107.439 70.7418 107.575C68.6888 107.727 66.6154 107.788 64.5471 107.895C63.9996 107.92 63.4572 107.834 62.9047 107.905C61.3028 108.118 59.7008 108.295 58.0939 108.442C56.7049 108.569 55.3311 108.777 53.9725 109.071C53.6582 109.137 53.2273 109.152 53.1462 109.623C50.5 108.321 47.7626 107.221 45.0708 106.014C44.3002 105.669 43.5145 105.365 42.7338 105.051C42.5817 104.99 42.4043 104.944 42.3333 105.162C42.2877 105.314 42.4195 105.396 42.526 105.456C42.9264 105.674 43.3219 105.897 43.7325 106.085C46.5662 107.373 49.4 108.645 52.2337 109.928C52.3807 109.993 52.5379 110.049 52.619 110.201C52.6849 111.134 52.5075 112.062 52.4669 112.989C52.3858 114.936 52.4466 116.873 52.4213 118.814C52.4112 119.58 52.3605 120.381 52.4821 121.111C52.7204 122.505 52.5075 123.873 52.4923 125.247C52.4821 126.033 52.472 126.849 52.5024 127.625C52.5987 130.078 52.5227 132.537 52.7863 134.98C52.4061 135.026 52.1171 134.879 51.8941 134.575C51.7015 134.215 51.3517 134.032 51.0272 133.84C50.0134 133.231 48.9488 132.709 48.0211 131.959C47.7727 131.756 47.4787 131.614 47.1289 131.716C45.9021 130.991 44.6703 130.266 43.4385 129.541C43.1901 129.394 42.9366 129.237 42.6679 129.14C41.7554 128.811 41.7453 128.821 41.72 127.843C41.6895 126.641 41.6743 125.44 41.6591 124.238C41.6135 120.421 41.5476 116.599 41.5324 112.782C41.5222 110.262 41.5831 107.738 41.5932 105.218C41.5932 104.737 41.725 104.539 42.2573 104.524C45.5017 104.422 48.746 104.29 51.9904 104.143C55.0371 104.002 58.0837 103.819 61.1304 103.662C64.4356 103.495 67.7459 103.337 71.0561 103.17C72.5414 103.094 74.0318 103.008 75.5171 102.927C76.9112 103.018 78.2901 102.785 79.6791 102.754H79.6943Z" fill="#D2DE68"/>
<path d="M53.1462 109.624C53.2273 109.153 53.6582 109.137 53.9725 109.071C55.3311 108.782 56.7049 108.57 58.0939 108.443C59.7009 108.296 61.3078 108.118 62.9047 107.905C63.4572 107.834 63.9997 107.921 64.5471 107.895C66.6104 107.789 68.6837 107.733 70.7419 107.576C72.5516 107.439 74.3766 107.703 76.166 107.302C76.2269 107.287 76.2978 107.287 76.3587 107.292C78.4016 107.368 80.4344 107.084 82.4773 107.034C83.8562 106.998 85.2604 107.003 86.6342 106.734C86.7609 106.709 86.8927 106.714 87.0245 106.714C89.5541 106.745 92.0786 106.425 94.6082 106.476C95.2875 106.491 95.9465 106.187 96.636 106.304C97.1987 106.831 97.3507 107.475 97.3406 108.235C97.3153 110.111 97.5028 111.981 97.4825 113.862C97.4673 115.646 97.513 117.436 97.5332 119.22C97.5332 119.413 97.513 119.611 97.6093 119.793C97.6296 121.172 97.6245 122.551 97.6802 123.925C97.7614 125.8 97.5484 127.661 97.4927 129.526C97.4623 130.591 96.9097 131.224 95.906 131.498C94.4916 131.366 93.1077 131.696 91.7035 131.726C91.4906 131.321 91.1459 131.483 90.8468 131.559C89.8988 131.797 88.9458 131.964 87.9826 132.101C87.7545 132.081 87.4909 131.97 87.4098 132.324C87.3743 132.375 87.3338 132.38 87.2831 132.34C86.5227 132.081 85.7623 132.304 85.0069 132.34C84.3074 132.375 83.6129 132.517 82.9032 132.461C82.817 132.466 82.7359 132.476 82.6497 132.482C81.7575 132.517 80.8754 132.72 79.9782 132.7C79.8312 132.7 79.6841 132.811 79.5371 132.872C76.9315 133.12 74.3208 133.262 71.7202 133.551C69.7939 133.764 67.8574 133.835 65.926 134.018C64.2278 134.18 62.5143 134.251 60.8415 134.641C60.5018 134.722 60.0354 134.732 59.9036 135.214C59.7921 135.128 59.6806 135.042 59.564 134.955C59.7059 134.55 59.6198 134.337 59.1331 134.388C58.2663 134.474 57.3994 134.545 56.5325 134.606C56.1929 134.631 55.909 134.753 55.6606 134.976C55.544 134.986 55.4274 134.991 55.3058 135.001C54.4643 135.087 53.6278 135.057 52.7863 134.966C52.5227 132.522 52.5987 130.058 52.5024 127.61C52.472 126.839 52.4822 126.018 52.4923 125.232C52.5075 123.864 52.7204 122.49 52.4822 121.096C52.3554 120.366 52.4061 119.565 52.4213 118.799C52.4517 116.858 52.3858 114.916 52.4669 112.975C52.5075 112.047 52.6849 111.119 52.619 110.187C52.984 110.161 53.3135 110.111 53.1361 109.609L53.1462 109.624ZM53.5366 110.648C53.1412 110.623 53.1462 110.912 53.1462 111.17C53.1462 112.366 53.126 113.568 53.1564 114.764C53.2882 119.717 53.4301 124.675 53.5721 129.628C53.5923 130.373 53.5974 131.118 53.6126 131.868C53.6227 132.35 53.7647 132.654 54.3223 132.385C54.6366 132.466 54.9104 132.669 55.25 132.669C57.2321 132.654 59.2294 132.76 61.2014 132.608C63.295 132.446 65.3988 132.294 67.4924 132.127C69.5911 131.959 71.6848 131.746 73.7885 131.665C74.5895 131.635 75.4006 131.584 76.1914 131.458C78.1127 131.158 80.0542 131.108 81.9856 130.951C83.2124 130.849 84.4392 130.743 85.671 130.662C86.5734 130.606 87.4909 130.601 88.3831 130.469C89.8228 130.261 91.2726 130.246 92.7123 130.094C93.4981 130.013 94.3446 130.089 95.0746 129.653C95.5359 129.881 95.7438 129.704 95.759 129.222C95.7945 128.086 95.8401 126.956 95.8654 125.82C95.9668 120.766 96.0631 115.707 96.1544 110.648C96.1645 109.969 96.1797 109.284 96.124 108.605C96.0581 107.789 95.9009 107.677 95.1 107.677C94.0303 107.677 92.9607 107.774 91.8961 107.789C88.5555 107.834 85.2198 108.007 81.8792 108.139C81.1289 108.169 80.3127 108.032 79.598 108.453C77.9809 108.453 76.3688 108.519 74.7517 108.575C72.359 108.661 69.9662 108.777 67.5735 108.838C67.0869 108.848 66.5952 108.803 66.1136 108.858C63.9236 109.102 61.7235 109.097 59.5285 109.208C57.7542 109.3 55.9952 109.487 54.2412 109.791C53.7039 109.888 53.5264 110.161 53.5416 110.648H53.5366Z" fill="#D2DE68"/>
<path d="M59.5739 134.97C59.6855 135.056 59.797 135.142 59.9136 135.229C59.2444 141.124 58.5854 147.02 57.9061 152.916C57.3941 157.392 56.8669 161.868 56.3296 166.339C56.1471 167.85 55.919 169.36 55.706 170.866C55.5895 171.692 55.2295 172.412 54.6668 173.02C54.17 173.558 53.6378 173.634 53.0092 173.299C52.2944 172.919 51.899 172.437 52.0054 171.53C52.2133 169.761 52.2944 167.976 52.4566 166.197C52.6898 163.617 52.9433 161.037 53.1866 158.461C53.4958 155.197 53.8101 151.937 54.1143 148.672C54.3627 145.991 54.5807 143.304 54.8291 140.622C54.971 139.107 55.1535 137.591 55.3005 136.075C55.336 135.72 55.3208 135.366 55.3258 135.006C55.4424 135.001 55.559 134.99 55.6807 134.98C56.0862 135.487 56.6692 134.904 57.1153 135.193C57.0444 135.725 56.9582 136.237 56.9125 136.755C56.6946 139.112 56.4918 141.474 56.284 143.831C56.0964 145.935 55.8987 148.034 55.7111 150.138C55.5033 152.464 55.3157 154.791 55.1079 157.118C54.8037 160.575 54.4843 164.038 54.1751 167.495C54.1092 168.205 54.0433 168.919 53.9926 169.629C53.9723 169.913 53.9115 170.273 54.3424 170.288C54.677 170.298 54.7226 169.994 54.7479 169.725C54.8138 169.046 54.8848 168.367 54.9406 167.688C55.0927 165.776 55.2295 163.865 55.3867 161.954C55.63 159.044 55.8885 156.135 56.1369 153.225C56.289 151.415 56.4259 149.6 56.578 147.785C56.7351 145.94 56.9531 144.1 57.0596 142.255C57.1914 140.019 57.5107 137.794 57.5107 135.548C57.5107 135.178 57.6527 135.016 58.0227 135.011C58.5449 135.006 59.0619 134.975 59.5841 134.96L59.5739 134.97Z" fill="#D2DE68"/>
<path d="M91.3788 132.086C92.1139 136.167 92.7476 140.263 93.7969 144.288C94.6891 147.71 95.2772 151.192 95.7131 154.71C96.1744 158.411 96.7422 162.101 97.3961 165.772C97.5077 166.4 97.6496 167.054 96.9551 167.526C96.4127 167.896 95.561 167.891 95.1352 167.379C94.8513 167.034 94.6131 166.674 94.5117 166.192C93.807 162.862 93.0568 159.541 92.3268 156.216C91.5512 152.703 90.7604 149.195 90.0101 145.677C89.1281 141.525 88.1446 137.388 87.3944 133.206C87.3437 132.922 87.3285 132.628 87.293 132.339C87.5616 132.623 87.8861 132.659 88.2561 132.598C89.2954 132.421 90.3346 132.258 91.3738 132.086H91.3788ZM90.5728 135.528C90.6286 136.146 90.6438 136.643 90.7249 137.125C91.5512 141.986 92.3876 146.843 93.2241 151.704C93.8121 155.121 94.3951 158.543 94.9882 161.959C95.2265 163.333 95.4698 164.707 95.708 166.081C95.7486 166.319 95.8297 166.567 96.1085 166.537C96.4634 166.502 96.4482 166.228 96.3975 165.944C96.2302 165.052 96.0832 164.154 95.921 163.262C95.3076 159.876 94.6942 156.495 94.0859 153.108C93.5434 150.107 93.001 147.111 92.4637 144.11C91.9922 141.49 91.5259 138.874 91.0544 136.253C91.0088 136.01 90.9834 135.751 90.583 135.523L90.5728 135.528Z" fill="#D2DE68"/>
<path d="M51.0164 134.611C50.7427 135.447 50.7427 136.319 50.621 137.181C50.4132 138.62 50.0786 140.045 49.7795 141.469C49.0394 144.988 48.2993 148.506 47.549 152.024C46.7582 155.724 45.9724 159.425 45.1512 163.12C44.9028 164.231 44.3705 165.153 43.159 165.498C42.6267 165.645 42.2566 165.508 42.064 165.001C41.8916 164.545 41.8004 164.053 41.8815 163.567C42.358 160.626 42.8497 157.686 43.3263 154.746C43.7622 152.029 44.1627 149.302 44.6088 146.584C45.0701 143.771 45.5568 140.957 46.0536 138.149C46.4135 136.116 46.814 134.088 47.1942 132.056C48.4666 132.907 49.744 133.764 51.0164 134.616V134.611ZM47.4932 138.646C47.1181 138.783 47.1688 139.046 47.1283 139.254C46.6112 141.865 46.3172 144.511 45.9775 147.147C45.7342 149.048 45.5314 150.949 45.2729 152.845C45.065 154.381 45.3236 155.973 44.6646 157.448C44.5733 157.651 44.6798 157.838 44.8825 157.924C45.1056 158.021 45.2627 157.889 45.354 157.706C45.6734 157.053 45.8153 156.353 45.795 155.628C45.7646 154.553 45.866 153.479 45.9978 152.419C46.4591 148.683 46.7531 144.932 47.2803 141.206C47.3969 140.385 47.6352 139.553 47.4932 138.641V138.646Z" fill="#D2DE68"/>
<path d="M82.6478 132.487C82.734 132.482 82.8201 132.471 82.9012 132.466C83.0178 133.658 83.1192 134.854 83.2561 136.045C83.5907 139.041 83.9405 142.037 84.2852 145.033C84.787 149.352 85.1976 153.676 85.588 158.006C85.6387 158.553 85.735 159.101 85.7958 159.648C85.8415 160.074 85.806 160.49 85.6184 160.885C85.3345 161.483 84.8529 161.752 84.2091 161.666C84.1128 161.655 84.0064 161.64 83.9252 161.6C83.5755 161.412 83.0989 161.767 82.8201 161.392C82.5464 161.017 82.5667 160.525 82.5109 160.084C82.08 156.409 81.6745 152.733 81.2639 149.058C80.838 145.251 80.3818 141.449 80.0117 137.637C79.8698 136.157 79.6265 134.671 79.7076 133.171C80.5389 133.257 81.3551 133.201 82.1763 133.044C82.516 132.978 82.7035 132.847 82.6478 132.482V132.487ZM82.2574 147.436C82.2879 147.7 82.298 147.958 82.3436 148.212C82.7745 150.503 83.2105 152.794 83.6566 155.086C83.8644 156.165 84.0824 157.25 84.3156 158.325C84.3511 158.502 84.422 158.751 84.6704 158.715C84.9442 158.675 84.9898 158.421 84.9797 158.188C84.9746 158.061 84.929 157.935 84.9036 157.808C84.3815 155.4 83.834 152.997 83.3423 150.584C83.1294 149.54 82.8151 148.506 82.8252 147.426C82.8252 147.122 82.9063 146.736 82.5363 146.736C82.1104 146.736 82.3183 147.177 82.2676 147.431L82.2574 147.436Z" fill="#D2DE68"/>
<path d="M134.697 173.735C134.844 171.86 134.732 169.984 134.651 168.108C134.544 165.645 134.403 163.186 134.418 160.717C134.433 158.152 134.124 155.597 134.185 153.032C134.195 152.703 134.098 152.338 134.367 152.008C134.813 152.794 135.026 155.957 135.203 162.917C135.295 166.583 135.69 170.233 135.579 173.908C135.046 174.344 135.036 174.344 134.702 173.74L134.697 173.735Z" fill="#0F274E"/>
<path d="M254.654 159.47C254.675 157.458 254.801 155.455 255.009 153.448C255.222 151.385 255.131 149.291 254.999 147.213C254.938 146.305 254.918 145.398 254.883 144.485C254.847 143.644 254.857 142.797 254.731 141.956C254.675 141.586 254.568 141.19 254.771 140.754C255.156 140.957 255.156 141.322 255.243 141.642C255.557 142.818 255.501 144.029 255.587 145.226C255.77 147.786 255.957 150.351 255.82 152.916C255.734 154.533 255.425 156.14 255.46 157.767C255.471 158.32 255.501 158.867 255.521 159.42C255.244 159.737 254.955 159.753 254.654 159.465V159.47Z" fill="#0F274E"/>
<path d="M51.0175 134.611C49.7451 133.759 48.4676 132.902 47.1952 132.051C47.18 131.939 47.1648 131.828 47.1445 131.721C47.4892 131.62 47.7883 131.762 48.0367 131.964C48.9644 132.715 50.029 133.237 51.0428 133.845C51.3673 134.038 51.7171 134.22 51.9097 134.58C51.636 135.168 51.3115 134.58 51.0175 134.616V134.611Z" fill="#0F274E"/>
<path d="M91.38 132.086C90.3408 132.253 89.2965 132.42 88.2624 132.598C87.8974 132.658 87.5679 132.628 87.2992 132.339H87.2891C87.3347 132.38 87.3752 132.374 87.4158 132.324C87.6236 132.293 87.8315 132.258 87.9886 132.101C88.9518 131.964 89.9099 131.792 90.8528 131.558C91.1519 131.482 91.4915 131.315 91.7095 131.726C91.6031 131.847 91.4915 131.964 91.3851 132.086H91.38Z" fill="#002450"/>
<path d="M79.6932 102.755C78.3042 102.78 76.9253 103.018 75.5312 102.927C75.5414 102.714 75.6529 102.572 75.8405 102.481C77.0115 102.405 78.1825 102.334 79.3535 102.258C79.6323 102.309 79.7439 102.476 79.6982 102.755H79.6932Z" fill="#0F274E"/>
<path d="M82.6489 132.486C82.7046 132.856 82.5171 132.983 82.1774 133.049C81.3613 133.206 80.54 133.262 79.7087 133.176C79.6478 133.074 79.5921 132.978 79.5312 132.877C79.6783 132.816 79.8253 132.699 79.9723 132.704C80.8695 132.725 81.7516 132.522 82.6438 132.486H82.6489Z" fill="#0F274E"/>
<path d="M141.631 115.423C141.16 115.443 140.491 115.149 139.822 115.443C139.72 115.489 139.563 115.402 139.533 115.25C139.502 115.093 139.609 114.997 139.725 114.961C139.974 114.896 140.232 114.855 140.491 114.819C143.745 114.409 147.01 114.13 150.275 113.831C154.183 113.476 158.091 113.116 162 112.777C163.906 112.609 165.817 112.477 167.728 112.315C170.734 112.062 173.74 111.798 176.752 111.545C180.63 111.22 184.508 110.916 188.386 110.587C193.425 110.161 198.458 109.715 203.492 109.289C206.823 109.005 210.158 108.751 213.494 108.473C216.855 108.189 220.216 107.875 223.577 107.601C228.393 107.21 233.214 106.861 238.03 106.47C240.716 106.252 243.398 105.999 246.08 105.771C246.435 105.74 246.794 105.73 247.149 105.766C247.388 105.791 247.524 105.989 247.58 106.237C247.641 106.526 247.433 106.648 247.256 106.78C247.063 106.927 246.82 106.886 246.597 106.906C244.234 107.104 241.872 107.286 239.515 107.489C235.312 107.849 231.115 108.219 226.913 108.574C224.743 108.757 222.573 108.904 220.409 109.081C217.884 109.289 215.365 109.527 212.845 109.74C209.971 109.983 207.097 110.206 204.222 110.44C200.207 110.769 196.198 111.104 192.183 111.433C188.269 111.753 184.356 112.067 180.447 112.391C177.634 112.624 174.825 112.873 172.012 113.106C170.298 113.248 168.585 113.37 166.871 113.507C163.09 113.816 159.313 114.14 155.531 114.434C152.49 114.672 149.443 114.88 146.396 115.093C144.876 115.2 143.355 115.301 141.636 115.418L141.631 115.423Z" fill="#0F274E"/>
<path d="M84.8223 94.5525C85.5827 94.806 86.5458 95.095 87.4837 95.4447C92.918 97.4826 98.3523 99.5154 103.776 101.584C108.648 103.439 113.504 105.34 118.371 107.206C121.367 108.351 124.383 109.456 127.384 110.602C130.502 111.793 133.615 113 136.727 114.211C137.366 114.46 137.629 114.804 137.493 115.159C137.356 115.524 136.97 115.585 136.311 115.332C131.293 113.4 126.279 111.474 121.266 109.543C116.825 107.829 112.399 106.08 107.943 104.412C100.628 101.67 93.3742 98.7854 86.1251 95.8858C85.5522 95.6577 84.9997 95.3788 84.4522 95.1051C84.2849 95.024 84.1126 94.877 84.1987 94.6489C84.2748 94.4562 84.4573 94.5018 84.8273 94.5576L84.8223 94.5525Z" fill="#0F274E"/>
<path d="M139.379 135.548C139.359 135.675 139.334 135.801 139.324 135.928C139.293 136.268 139.222 136.567 138.796 136.597C138.401 136.623 138.208 136.41 138.122 136.06C138.097 135.969 138.082 135.872 138.066 135.781C138.168 133.515 138.229 131.249 138.386 128.988C138.634 125.465 138.67 121.937 138.715 118.404C138.715 118.079 138.736 117.755 138.751 117.43C138.761 117.253 138.847 117.116 139.04 117.111C139.227 117.101 139.349 117.243 139.369 117.405C139.425 117.856 139.466 118.307 139.476 118.758C139.592 123.194 139.577 127.625 139.344 132.06C139.283 133.221 139.263 134.392 139.39 135.553L139.379 135.548Z" fill="#0F274E"/>
<path d="M85.9191 52.452C86.4869 52.0059 86.9888 52.0667 87.4653 52.0667C90.9732 52.0413 94.4863 52.0059 97.9943 52.0059C106.313 52.0059 114.632 52.0261 122.945 52.0413C127.559 52.0515 132.177 52.0312 136.79 52.1123C143.74 52.239 150.685 52.2137 157.635 52.2593C161.335 52.2847 165.031 52.3607 168.732 52.4165C169.446 52.4266 169.862 52.6801 169.847 53.0806C169.837 53.5013 169.426 53.7548 168.732 53.7548C166.719 53.7548 164.707 53.7852 162.699 53.7345C154.614 53.5317 146.528 53.6686 138.442 53.5216C132.243 53.4101 126.043 53.4455 119.848 53.3442C114.586 53.258 109.329 53.2478 104.067 53.1515C100.139 53.0806 96.2149 53.0755 92.2862 52.9488C90.5981 52.893 88.9151 52.8372 87.227 52.7764C86.8113 52.7612 86.4159 52.6953 85.9141 52.4469L85.9191 52.452Z" fill="#0F274E"/>
<path d="M80.0967 71.7608C80.0967 77.5753 80.0967 83.3949 80.0967 89.2094C80.0967 90.345 80.0866 91.4856 80.0663 92.6211C80.0511 93.3409 79.8432 93.6806 79.4681 93.6907C79.0423 93.7059 78.8192 93.3257 78.8243 92.5805C78.8902 84.9867 78.951 77.3878 79.022 69.7939C79.0727 64.6333 79.1082 59.4728 79.2096 54.3122C79.2299 53.1463 79.2805 51.9752 79.3515 50.8093C79.3667 50.5862 79.3312 50.348 79.458 50.1452C79.5289 50.0337 79.6253 49.9272 79.7672 49.9678C79.8483 49.9931 79.9396 50.059 79.9852 50.1351C80.1677 50.4291 80.1018 50.7687 80.1018 51.0881C80.1271 55.1841 80.1423 59.2801 80.1525 63.3762C80.1575 66.1694 80.1525 68.9676 80.1525 71.7608C80.1322 71.7608 80.1119 71.7608 80.0916 71.7608H80.0967Z" fill="#0F274E"/>
<path d="M172.016 64.8206C172.016 68.3641 172.026 71.9076 172.016 75.4561C172.001 78.6954 171.955 81.9397 171.925 85.179C171.925 85.5339 171.91 85.8938 171.879 86.2487C171.854 86.5376 171.697 86.7455 171.398 86.7759C171.033 86.8114 170.87 86.5579 170.799 86.2537C170.754 86.0662 170.774 85.8685 170.774 85.6708C170.774 84.2412 170.83 82.8117 170.855 81.3821C170.926 77.1949 170.88 73.0025 170.931 68.8102C170.997 63.381 171.104 57.9568 171.205 52.5275C171.22 51.7469 171.296 50.9713 171.352 50.1906C171.362 50.0284 171.453 49.8408 171.61 49.8104C171.864 49.7648 171.94 50.003 171.965 50.1855C172.021 50.6367 172.062 51.0929 172.067 51.5441C172.072 55.9645 172.067 60.3901 172.067 64.8105C172.051 64.8105 172.036 64.8105 172.021 64.8105L172.016 64.8206Z" fill="#0F274E"/>
<path d="M53.1456 109.623C53.3231 110.125 52.9936 110.181 52.6286 110.201C52.5424 110.044 52.3853 109.993 52.2433 109.927C49.4096 108.645 46.5707 107.367 43.7421 106.085C43.3314 105.897 42.931 105.674 42.5356 105.456C42.4291 105.396 42.2922 105.314 42.3429 105.162C42.4088 104.944 42.5913 104.99 42.7434 105.051C43.5241 105.365 44.3098 105.674 45.0804 106.014C47.7722 107.215 50.5096 108.315 53.1558 109.623H53.1456Z" fill="#0F274E"/>
<path d="M95.0685 129.652C94.3386 130.088 93.4971 130.012 92.7062 130.093C91.2666 130.246 89.8167 130.261 88.377 130.469C87.4848 130.595 86.5673 130.6 85.6649 130.661C84.4382 130.737 83.2063 130.849 81.9795 130.95C80.0481 131.107 78.1066 131.163 76.1853 131.457C75.3945 131.579 74.5834 131.635 73.7825 131.665C71.6787 131.746 69.58 131.959 67.4864 132.126C65.3927 132.294 63.294 132.446 61.1953 132.608C59.2234 132.76 57.2311 132.659 55.2439 132.669C54.9043 132.669 54.6305 132.466 54.3163 132.385C54.3213 131.994 54.3517 131.604 54.3315 131.219C54.1591 128.116 54.1591 125.009 54.0172 121.901C53.8499 118.15 53.8549 114.394 53.5356 110.648C53.5254 110.161 53.6978 109.887 54.2351 109.791C55.9841 109.487 57.7431 109.299 59.5224 109.208C61.7175 109.096 63.9175 109.096 66.1075 108.858C66.5891 108.807 67.0808 108.853 67.5675 108.838C69.9602 108.777 72.3529 108.665 74.7456 108.574C76.3627 108.513 77.9748 108.453 79.5919 108.453C79.7085 108.655 79.9011 108.665 80.0988 108.665C80.7173 108.665 81.3307 108.671 81.9491 108.676C86.2074 108.711 90.4555 108.518 94.7137 108.442C95.5197 108.427 95.5755 108.442 95.5146 109.223C95.393 110.911 95.3727 112.599 95.3372 114.287C95.3119 115.392 95.2865 116.498 95.2612 117.603C95.251 117.978 95.1192 118.17 94.6833 118.201C92.1892 118.378 89.6951 118.601 87.201 118.799C83.6727 119.078 80.1394 119.341 76.6111 119.63C73.0829 119.919 69.5597 120.234 66.0315 120.528C63.3802 120.746 60.7239 120.928 58.0726 121.177C57.2007 121.258 56.3237 121.298 55.4518 121.395C55.1071 121.435 54.6762 121.364 54.4328 121.805C54.6356 121.952 54.8181 121.972 55.0158 121.962C57.3173 121.8 59.6188 121.658 61.9152 121.481C64.8909 121.248 67.8666 120.974 70.8422 120.746C72.7179 120.599 74.5935 120.411 76.4743 120.305C78.7098 120.178 80.9353 119.935 83.1658 119.752C84.9755 119.6 86.7903 119.463 88.6001 119.311C90.5416 119.149 92.4832 118.961 94.4247 118.809C95.1851 118.748 95.2054 118.779 95.1851 119.529C95.1243 122.19 95.2054 124.857 95.0432 127.523C94.9976 128.228 94.9063 128.953 95.0635 129.663L95.0685 129.652ZM75.4756 126.241C75.7899 126.205 76.0789 126.215 76.1955 125.921C76.2867 125.693 76.2157 125.48 76.0434 125.303C75.9775 125.232 75.9116 125.156 75.8609 125.075C75.6987 124.811 75.5111 124.578 75.1664 124.71C74.771 124.862 74.553 125.197 74.4972 125.592C74.4415 125.982 74.8267 126.018 75.0701 126.144C75.2069 126.215 75.3793 126.221 75.4807 126.241H75.4756ZM74.8318 114.444C74.8267 114.744 74.8065 115.043 75.2221 115.093C75.6936 115.154 76.2005 114.83 76.2411 114.429C76.2867 113.973 76.0383 113.578 75.6834 113.552C75.2779 113.522 74.8926 113.932 74.8369 114.444H74.8318Z" fill="#C7CC60"/>
<path d="M95.072 129.653C94.92 128.943 95.0061 128.223 95.0518 127.513C95.219 124.852 95.1379 122.186 95.1937 119.519C95.2089 118.769 95.1937 118.743 94.4333 118.799C92.4918 118.951 90.5502 119.139 88.6086 119.301C86.7989 119.453 84.9841 119.59 83.1743 119.742C80.9438 119.93 78.7133 120.168 76.4828 120.295C74.6021 120.401 72.7315 120.594 70.8508 120.736C67.8751 120.964 64.8994 121.238 61.9237 121.471C59.6223 121.648 57.3208 121.79 55.0244 121.952C54.8267 121.968 54.6442 121.947 54.4414 121.795C54.6847 121.349 55.1156 121.425 55.4603 121.385C56.3323 121.283 57.2093 121.248 58.0812 121.167C60.7324 120.913 63.3888 120.736 66.04 120.518C69.5683 120.224 73.0914 119.909 76.6197 119.62C80.1479 119.332 83.6813 119.073 87.2095 118.789C89.7036 118.591 92.1927 118.373 94.6918 118.191C95.1278 118.16 95.2596 117.968 95.2697 117.593C95.2951 116.488 95.3204 115.382 95.3458 114.277C95.3863 112.589 95.4015 110.901 95.5232 109.213C95.579 108.432 95.5283 108.417 94.7223 108.432C90.4691 108.509 86.2159 108.701 81.9577 108.666C81.3392 108.661 80.7258 108.661 80.1074 108.656C79.9097 108.656 79.712 108.645 79.6005 108.443C80.3152 108.022 81.1314 108.159 81.8817 108.128C85.2173 107.997 88.558 107.824 91.8986 107.779C92.9632 107.763 94.0328 107.672 95.1025 107.667C95.9034 107.667 96.0606 107.779 96.1265 108.595C96.1822 109.274 96.167 109.958 96.1569 110.638C96.0656 115.697 95.9693 120.751 95.8679 125.81C95.8476 126.946 95.7969 128.076 95.7615 129.212C95.7463 129.693 95.5384 129.871 95.0771 129.643L95.072 129.653Z" fill="#0F274E"/>
<path d="M59.5712 134.971C59.0491 134.991 58.532 135.016 58.0099 135.021C57.6398 135.021 57.5029 135.194 57.4979 135.559C57.4979 137.804 57.1734 140.025 57.0467 142.265C56.9402 144.111 56.7222 145.951 56.5651 147.796C56.413 149.606 56.2761 151.421 56.1241 153.235C55.8807 156.145 55.6171 159.055 55.3738 161.965C55.2167 163.876 55.0798 165.787 54.9277 167.698C54.8719 168.377 54.801 169.057 54.7351 169.736C54.7097 170.005 54.6692 170.304 54.3295 170.299C53.8986 170.289 53.9595 169.929 53.9797 169.64C54.0304 168.925 54.0963 168.215 54.1622 167.506C54.4715 164.048 54.7858 160.591 55.095 157.129C55.3028 154.802 55.4904 152.475 55.6982 150.148C55.8858 148.044 56.0835 145.946 56.2711 143.842C56.484 141.485 56.6868 139.122 56.8997 136.765C56.9453 136.248 57.0315 135.736 57.1024 135.204C56.6513 134.915 56.0734 135.503 55.6678 134.991C55.9162 134.768 56.2001 134.646 56.5397 134.621C57.4066 134.56 58.2735 134.489 59.1403 134.403C59.627 134.352 59.7131 134.565 59.5712 134.971V134.971Z" fill="#0F274E"/>
<path d="M53.5348 110.648C53.8542 114.394 53.8491 118.15 54.0164 121.901C54.1584 125.009 54.1533 128.116 54.3307 131.219C54.351 131.604 54.3206 131.994 54.3155 132.385C53.7579 132.648 53.6159 132.344 53.6058 131.868C53.5906 131.123 53.5855 130.377 53.5653 129.627C53.4284 124.674 53.2814 119.717 53.1496 114.764C53.1192 113.567 53.1394 112.366 53.1394 111.17C53.1394 110.911 53.1394 110.622 53.5298 110.648H53.5348Z" fill="#0F274E"/>
<path d="M87.983 132.106C87.8258 132.263 87.618 132.299 87.4102 132.329C87.4913 131.974 87.7549 132.086 87.983 132.106Z" fill="#C14A26"/>
<path d="M90.5726 135.523C90.9782 135.751 91.0035 136.015 91.0441 136.253C91.5155 138.874 91.9819 141.49 92.4534 144.11C92.9907 147.111 93.5331 150.107 94.0755 153.108C94.6889 156.495 95.3023 159.876 95.9106 163.262C96.0729 164.154 96.2199 165.052 96.3872 165.944C96.4378 166.228 96.4531 166.502 96.0982 166.537C95.8245 166.562 95.7383 166.319 95.6977 166.081C95.4595 164.707 95.2161 163.333 94.9779 161.959C94.3898 158.543 93.8018 155.121 93.2138 151.704C92.3773 146.848 91.5409 141.986 90.7146 137.125C90.6335 136.643 90.6183 136.146 90.5625 135.528L90.5726 135.523Z" fill="#0F274E"/>
<path d="M47.4905 138.64C47.6325 139.553 47.3942 140.384 47.2776 141.205C46.7555 144.931 46.4564 148.682 45.9951 152.419C45.8633 153.478 45.7619 154.548 45.7923 155.627C45.8126 156.352 45.6656 157.052 45.3513 157.706C45.26 157.893 45.1029 158.02 44.8798 157.924C44.6771 157.838 44.5706 157.65 44.6619 157.447C45.3259 155.972 45.0623 154.375 45.2702 152.844C45.5287 150.948 45.7315 149.042 45.9748 147.146C46.3094 144.51 46.6034 141.864 47.1256 139.254C47.1661 139.046 47.1205 138.787 47.4905 138.645V138.64Z" fill="#0F274E"/>
<path d="M82.264 147.436C82.3097 147.183 82.1069 146.742 82.5327 146.742C82.9028 146.742 82.8217 147.127 82.8217 147.431C82.8166 148.511 83.1258 149.545 83.3387 150.589C83.8355 153.002 84.378 155.405 84.9001 157.813C84.9254 157.94 84.9711 158.067 84.9761 158.193C84.9863 158.432 84.9457 158.68 84.6669 158.721C84.4185 158.756 84.3526 158.508 84.3121 158.33C84.0839 157.25 83.866 156.171 83.653 155.091C83.212 152.8 82.776 150.508 82.3401 148.217C82.2945 147.963 82.2793 147.7 82.2539 147.441L82.264 147.436Z" fill="#0F274E"/>
<path d="M75.4772 126.241C75.3758 126.22 75.2034 126.215 75.0666 126.144C74.8232 126.023 74.438 125.982 74.4937 125.592C74.5495 125.191 74.7725 124.862 75.1629 124.71C75.5076 124.578 75.7002 124.811 75.8574 125.075C75.9081 125.156 75.9689 125.232 76.0399 125.303C76.2122 125.48 76.2832 125.693 76.1919 125.921C76.0754 126.215 75.7915 126.205 75.4721 126.241H75.4772Z" fill="#0F274E"/>
<path d="M74.8311 114.445C74.8868 113.928 75.2721 113.522 75.6777 113.552C76.0325 113.578 76.286 113.973 76.2353 114.429C76.1947 114.83 75.6878 115.149 75.2163 115.093C74.8007 115.043 74.8209 114.744 74.826 114.445H74.8311Z" fill="#0F274E"/>
</svg>
